<svg width="24" height="22" viewBox="0 0 24 22" fill="none" xmlns="http://www.w3.org/2000/svg">
<path d="M22.8 19.4H1.2C0.537608 19.4 0 19.9376 0 20.6C0 21.2624 0.537608 21.8 1.2 21.8H22.8C23.4624 21.8 24 21.2624 24 20.5999C24 19.9376 23.4624 19.4 22.8 19.4ZM1.2 2.59995H22.8C23.4624 2.59995 24 2.06238 24 1.39995C24 0.73752 23.4624 0.199951 22.8 0.199951H1.2C0.537608 0.19999 0 0.737559 0 1.39999C0 2.06238 0.537608 2.59995 1.2 2.59995ZM22.8 9.79995H1.2C0.537608 9.79995 0 10.3376 0 11C0 11.6624 0.537608 12.2 1.2 12.2H22.8C23.4624 12.2 24 11.6624 24 11C24 10.3376 23.4624 9.79995 22.8 9.79995Z" fill="#2D2D2D"/>
</svg>
